<?xml version="1.0" encoding="utf-8"?>
<!-- Generator: Adobe Illustrator 19.0.0, SVG Export Plug-In . SVG Version: 6.00 Build 0)  -->
<svg version="1.1" xmlns="http://www.w3.org/2000/svg" xmlns:xlink="http://www.w3.org/1999/xlink" x="0px" y="0px"
	 viewBox="0 0 1400 980" style="enable-background:new 0 0 1400 980;" xml:space="preserve">
<style type="text/css">
	.st0{clip-path:url(#XMLID_2_);}
	.st1{fill:#FFFFFF;}
	.st2{fill:#292728;}
	.st3{fill:#231F20;}
	.st4{fill:#333132;}
	.st5{fill:#2D2A2B;}
	.st6{fill:#808285;}
	.st7{fill:#939598;}
	.st8{fill:#FFC776;}
	.st9{fill:#E2A85A;}
	.st10{fill:#AD7131;}
	.st11{fill:#DDDCDB;}
	.st12{fill:#E84646;}
	.st13{fill:#D83D3D;}
	.st14{fill:#F46E6E;}
	.st15{fill:#965C29;}
</style>
<g id="Layer_1">
</g>
<g id="Layer_2">
	<g id="XMLID_229_">
		<defs>
			<rect id="XMLID_228_" width="1400" height="980"/>
		</defs>
		<clipPath id="XMLID_2_">
			<use xlink:href="#XMLID_228_"  style="overflow:visible;"/>
		</clipPath>
		<g id="XMLID_13_" class="st0">
			<rect id="XMLID_3_" class="st1" width="1400" height="980"/>
			<g id="XMLID_31_">
				<polygon id="XMLID_35_" class="st2" points="1411,595.8 1411,753 822.3,297 874.8,297 				"/>
				<polygon id="XMLID_34_" class="st3" points="865.1,297 1411,597 1411,659.6 846.1,297 				"/>
				<polygon id="XMLID_33_" class="st4" points="883.8,297 1426.9,564.6 1426.9,627.2 864.7,297 				"/>
				<rect id="XMLID_32_" x="864.7" y="137.5" class="st5" width="19" height="159.5"/>
			</g>
			<rect id="XMLID_16_" x="523.5" y="137.5" class="st2" width="347.5" height="159.5"/>
			<path id="XMLID_47_" class="st3" d="M678.5,269c0-8.7-8.6-24.7-9.4-33.3c-0.1-1.2-0.3-3.3-0.3-4.9c0-0.1,0-0.3,0-0.5
				c0-0.1,0-0.2,0-0.2c0.6-5.9,7.1-22.6-5.2-23.5h-1h-1.8h-1c-0.4,0-0.7,0.1-1,0.1c0,0,0,0,0,0c-10.8,1.8-4.7,17.7-4.2,23.4
				c0,0.1,0,0.2,0,0.2c0,0.2,0,0.3,0,0.5c0,1.6-0.2,3.7-0.3,4.9c-0.8,8.6-9.4,24.6-9.4,33.3c0,18.3,6.6,29.8,6.6,29.8h5h3.2h1h1.8h1
				h8.2C671.8,298.8,678.9,287.2,678.5,269z"/>
			<path id="XMLID_42_" class="st3" d="M634.7,269c0-8.7-8.6-24.7-9.4-33.3c-0.1-1.2-0.3-3.3-0.3-4.9c0-0.1,0-0.3,0-0.5
				c0-0.1,0-0.2,0-0.2c0.6-5.9,7.1-22.6-5.2-23.5h-1h-1.8h-1c-0.4,0-0.7,0.1-1,0.1c0,0,0,0,0,0c-10.8,1.8-4.7,17.7-4.2,23.4
				c0,0.1,0,0.2,0,0.2c0,0.2,0,0.3,0,0.5c0,1.6-0.2,3.7-0.3,4.9c-0.8,8.6-9.4,24.6-9.4,33.3c0,18.3,6.6,29.8,6.6,29.8h5h3.2h1h1.8h1
				h8.2C628.1,298.8,635.2,287.2,634.7,269z"/>
			<path id="XMLID_43_" class="st3" d="M721,269c0-8.7-8.6-24.7-9.4-33.3c-0.1-1.2-0.3-3.3-0.3-4.9c0-0.1,0-0.3,0-0.5
				c0-0.1,0-0.2,0-0.2c0.6-5.9,7.1-22.6-5.2-23.5h-1h-1.8h-1c-0.4,0-0.7,0.1-1,0.1c0,0,0,0,0,0c-10.8,1.8-4.7,17.7-4.2,23.4
				c0,0.1,0,0.2,0,0.2c0,0.2,0,0.3,0,0.5c0,1.6-0.2,3.7-0.3,4.9c-0.8,8.6-9.4,24.6-9.4,33.3c0,18.3,6.6,29.8,6.6,29.8h5h3.2h1h1.8h1
				h8.2C714.3,298.8,721.4,287.2,721,269z"/>
			<path id="XMLID_44_" class="st3" d="M766,269c0-8.7-8.6-24.7-9.4-33.3c-0.1-1.2-0.3-3.3-0.3-4.9c0-0.1,0-0.3,0-0.5
				c0-0.1,0-0.2,0-0.2c0.6-5.9,7.1-22.6-5.2-23.5h-1h-1.8h-1c-0.4,0-0.7,0.1-1,0.1c0,0,0,0,0,0c-10.8,1.8-4.7,17.7-4.2,23.4
				c0,0.1,0,0.2,0,0.2c0,0.2,0,0.3,0,0.5c0,1.6-0.2,3.7-0.3,4.9c-0.8,8.6-9.4,24.6-9.4,33.3c0,18.3,6.6,29.8,6.6,29.8h5h3.2h1h1.8h1
				h8.2C759.3,298.8,766.4,287.2,766,269z"/>
			<path id="XMLID_45_" class="st3" d="M799.2,269c0-8.7-8.6-24.7-9.4-33.3c-0.1-1.2-0.3-3.3-0.3-4.9c0-0.1,0-0.3,0-0.5
				c0-0.1,0-0.2,0-0.2c0.6-5.9,7.1-22.6-5.2-23.5h-1h-1.8h-1c-0.4,0-0.7,0.1-1,0.1c0,0,0,0,0,0c-10.8,1.8-4.7,17.7-4.2,23.4
				c0,0.1,0,0.2,0,0.2c0,0.2,0,0.3,0,0.5c0,1.6-0.2,3.7-0.3,4.9c-0.8,8.6-9.4,24.6-9.4,33.3c0,18.3,6.6,29.8,6.6,29.8h5h3.2h1h1.8h1
				h8.2C792.5,298.8,799.6,287.2,799.2,269z"/>
			<rect id="XMLID_11_" class="st6" width="1400" height="137.5"/>
			<rect id="XMLID_38_" y="101.3" class="st7" width="1400" height="36.3"/>
			<polygon id="XMLID_15_" class="st8" points="1400,729.4 825.5,296 683.3,296 683.1,297 574.5,297 0,730.4 0,981 716.7,981 
				716.7,980 1400,980 			"/>
			<path id="XMLID_235_" class="st9" d="M1017.4,440.7L825.5,296H683.3l-0.2,1H574.5L392.6,434.2C459.7,466.5,597.2,499,700,499
				C826.8,499,949.9,470.8,1017.4,440.7z"/>
			<ellipse id="XMLID_27_" class="st9" cx="473.8" cy="841.8" rx="93.5" ry="51"/>
			<g id="XMLID_17_">
				<polygon id="XMLID_18_" class="st10" points="581.1,297 0,804.5 0,807.1 584.1,297 				"/>
				<polygon id="XMLID_53_" class="st10" points="595.8,297 0,891.7 0,894.6 598.7,297 				"/>
				<polygon id="XMLID_54_" class="st10" points="610.6,297 23.2,981 25.9,981 613.3,297 				"/>
				<polygon id="XMLID_55_" class="st10" points="625.4,297 135.9,981 138.4,981 627.9,297 				"/>
				<polygon id="XMLID_56_" class="st10" points="640.1,297 248.5,981 250.9,981 642.5,297 				"/>
				<polygon id="XMLID_57_" class="st10" points="654.9,297 361.2,981 363.4,981 657.1,297 				"/>
				<polygon id="XMLID_58_" class="st10" points="669.6,297 473.8,981 475.9,981 671.7,297 				"/>
				<polygon id="XMLID_59_" class="st10" points="586.4,981 588.4,981 686.5,296 684.4,296 				"/>
				<rect id="XMLID_60_" x="699" y="296" class="st10" width="2" height="685"/>
				<polygon id="XMLID_61_" class="st10" points="713.5,296 811.4,980 813.5,980 715.6,296 				"/>
				<polygon id="XMLID_62_" class="st10" points="728,296 923.8,980 925.9,980 730.1,296 				"/>
				<polygon id="XMLID_63_" class="st10" points="742.5,296 1036.2,980 1038.4,980 744.7,296 				"/>
				<polygon id="XMLID_64_" class="st10" points="757,296 1148.6,980 1150.9,980 759.3,296 				"/>
				<polygon id="XMLID_65_" class="st10" points="771.4,296 1260.9,980 1263.4,980 773.9,296 				"/>
				<polygon id="XMLID_66_" class="st10" points="785.9,296 1373.3,980 1375.9,980 788.5,296 				"/>
				<polygon id="XMLID_67_" class="st10" points="800.3,296 1400,894.6 1400,891.7 803.2,296 				"/>
				<polygon id="XMLID_68_" class="st10" points="817.8,296 814.7,296 1400,807.1 1400,804.5 				"/>
			</g>
			<rect id="XMLID_70_" x="98" y="137.5" class="st2" width="337.5" height="159.5"/>
			<path id="XMLID_14_" class="st3" d="M319.2,302.8c8.7,0,24.7-8.6,33.3-9.4c1.2-0.1,3.3-0.3,4.9-0.3c0.1,0,0.3,0,0.5,0
				c0.1,0,0.2,0,0.2,0c5.9,0.6,22.6,7.1,23.5-5.2v-1v-1.8v-1c0-0.4-0.1-0.7-0.1-1c0,0,0,0,0,0c-1.8-10.8-17.7-4.7-23.4-4.2
				c-0.1,0-0.2,0-0.2,0c-0.2,0-0.3,0-0.5,0c-1.6,0-3.7-0.2-4.9-0.3c-8.6-0.8-24.6-9.4-33.3-9.4c-18.3,0-29.8,6.6-29.8,6.6v5v3.2v1
				v1.8v1v8.2C289.4,296.1,301,303.2,319.2,302.8z"/>
			<path id="XMLID_50_" class="st3" d="M270.9,269c0-8.7-8.6-24.7-9.4-33.3c-0.1-1.2-0.3-3.3-0.3-4.9c0-0.1,0-0.3,0-0.5
				c0-0.1,0-0.2,0-0.2c0.6-5.9,7.1-22.6-5.2-23.5h-1h-1.8h-1c-0.4,0-0.7,0.1-1,0.1c0,0,0,0,0,0c-10.8,1.8-4.7,17.7-4.2,23.4
				c0,0.1,0,0.2,0,0.2c0,0.2,0,0.3,0,0.5c0,1.6-0.2,3.7-0.3,4.9c-0.8,8.6-9.4,24.6-9.4,33.3c0,18.3,6.6,29.8,6.6,29.8h5h3.2h1h1.8h1
				h8.2C264.3,298.8,271.3,287.2,270.9,269z"/>
			<path id="XMLID_72_" class="st3" d="M187.6,269c0-8.7-8.6-24.7-9.4-33.3c-0.1-1.2-0.3-3.3-0.3-4.9c0-0.1,0-0.3,0-0.5
				c0-0.1,0-0.2,0-0.2c0.6-5.9,7.1-22.6-5.2-23.5h-1H170h-1c-0.4,0-0.7,0.1-1,0.1c0,0,0,0,0,0c-10.8,1.8-4.7,17.7-4.2,23.4
				c0,0.1,0,0.2,0,0.2c0,0.2,0,0.3,0,0.5c0,1.6-0.2,3.7-0.3,4.9c-0.8,8.6-9.4,24.6-9.4,33.3c0,18.3,6.6,29.8,6.6,29.8h5h3.2h1h1.8h1
				h8.2C181,298.8,188,287.2,187.6,269z"/>
			<path id="XMLID_71_" class="st3" d="M391,269c0-8.7-8.6-24.7-9.4-33.3c-0.1-1.2-0.3-3.3-0.3-4.9c0-0.1,0-0.3,0-0.5
				c0-0.1,0-0.2,0-0.2c0.6-5.9,7.1-22.6-5.2-23.5h-1h-1.8h-1c-0.4,0-0.7,0.1-1,0.1c0,0,0,0,0,0c-10.8,1.8-4.7,17.7-4.2,23.4
				c0,0.1,0,0.2,0,0.2c0,0.2,0,0.3,0,0.5c0,1.6-0.2,3.7-0.3,4.9c-0.8,8.6-9.4,24.6-9.4,33.3c0,18.3,6.6,29.8,6.6,29.8h5h3.2h1h1.8h1
				h8.2C384.4,298.8,391.4,287.2,391,269z"/>
			<path id="XMLID_48_" class="st3" d="M198.3,274.3c-8.7,0-24.7,8.6-33.3,9.4c-1.2,0.1-3.3,0.3-4.9,0.3c-0.1,0-0.3,0-0.5,0
				c-0.1,0-0.2,0-0.2,0c-5.9-0.6-22.6-7.1-23.5,5.2v1v1.8v1c0,0.4,0.1,0.7,0.1,1c0,0,0,0,0,0c1.8,10.8,17.7,4.7,23.4,4.2
				c0.1,0,0.2,0,0.2,0c0.2,0,0.3,0,0.5,0c1.6,0,3.7,0.2,4.9,0.3c8.6,0.8,24.6,9.4,33.3,9.4c18.3,0,29.8-6.6,29.8-6.6v-5v-3.2v-1
				v-1.8v-1V281C228.1,281,216.6,273.9,198.3,274.3z"/>
			<g id="XMLID_39_">
				<path id="XMLID_156_" class="st8" d="M-51.3,526.5l565.8-230.8h-22.2c-0.6,0.8-1.5,1.3-2.8,1.3H-51.3V526.5z"/>
				<polygon id="XMLID_232_" class="st4" points="16.4,297 -5.5,297 -16.5,307.5 				"/>
				<path id="XMLID_231_" class="st9" d="M454.2,297l-159.5,0l-167.7,0H18.5l-54.4,41c25.5,37.8,96.4,57.5,179.9,57.5
					C227.9,395.5,429.1,335.1,454.2,297z"/>
				<ellipse id="XMLID_152_" class="st9" cx="113.2" cy="344.8" rx="19.8" ry="10.8"/>
				<g id="XMLID_46_">
					<polygon id="XMLID_155_" class="st10" points="-51.3,318.4 53.9,297 50.9,297 -51.3,317.8 					"/>
					<polygon id="XMLID_153_" class="st10" points="-51.3,325 82.5,297 79.6,297 -51.3,324.4 					"/>
					<polygon id="XMLID_119_" class="st10" points="-51.3,332.8 114.5,297 111.9,297 -51.3,332.2 					"/>
					<polygon id="XMLID_161_" class="st10" points="-51.3,340.5 144.2,297 141.7,297 -51.3,340 					"/>
					<polygon id="XMLID_162_" class="st10" points="-51.3,349.5 177,297 174.7,297 -51.3,349 					"/>
					<polygon id="XMLID_80_" class="st10" points="-51.3,359.3 210.6,297 208.4,297 -51.3,358.8 					"/>
					<polygon id="XMLID_79_" class="st10" points="-51.3,367.8 236.4,297 234.3,297 -51.3,367.3 					"/>
					<polygon id="XMLID_78_" class="st10" points="-51.3,377.8 265.4,297 263.3,297 -51.3,377.3 					"/>
					<polygon id="XMLID_77_" class="st10" points="-51.3,410.5 377.4,297 375.4,297 -51.3,410 					"/>
					<polygon id="XMLID_118_" class="st10" points="-51.3,405.3 357.6,297 355.6,297 -51.3,404.7 					"/>
					<polygon id="XMLID_168_" class="st10" points="-51.3,399.4 335.5,297 333.5,297 -51.3,398.9 					"/>
					<polygon id="XMLID_75_" class="st10" points="-51.3,392.4 309.1,297 307.1,297 -51.3,391.9 					"/>
					<polygon id="XMLID_69_" class="st10" points="-51.3,386.8 287.8,297 285.8,297 -51.3,386.3 					"/>
					<polygon id="XMLID_52_" class="st10" points="-51.3,419.3 393.2,297 391.1,297 -51.3,418.8 					"/>
					<polygon id="XMLID_116_" class="st10" points="-51.3,430.5 414.6,297 412.5,297 -51.3,429.9 					"/>
					<polygon id="XMLID_115_" class="st10" points="-51.3,440.6 429.4,297 427.2,297 -51.3,439.9 					"/>
					<polygon id="XMLID_81_" class="st10" points="-51.3,451.6 444.2,297 441.8,297 -51.3,450.9 					"/>
					<polygon id="XMLID_74_" class="st10" points="-51.3,463.7 458.9,297 456.5,297 -51.3,462.9 					"/>
					<polygon id="XMLID_73_" class="st10" points="-51.3,476.9 473.8,297 471.1,297 -51.3,476 					"/>
					<polygon id="XMLID_177_" class="st10" points="-51.3,491.5 488.6,297 485.7,297 -51.3,490.5 					"/>
					<polygon id="XMLID_178_" class="st10" points="-51.3,507.7 506.8,295.7 503.7,295.7 -51.3,506.6 					"/>
				</g>
			</g>
			<polygon id="XMLID_28_" class="st2" points="-11,595.8 -11,753 577.8,297 525.2,297 			"/>
			<polygon id="XMLID_30_" class="st3" points="534.9,297 -11,597 -11,659.6 554,297 			"/>
			<polygon id="XMLID_12_" class="st4" points="516.2,297 -26.8,564.6 -26.8,627.2 535.3,297 			"/>
			<g id="XMLID_19_">
				<g id="XMLID_109_">
					<path id="XMLID_114_" class="st1" d="M608.6,237.8c-0.1-1.2-0.3-3.3-0.3-4.9c0-5.1,7.6-23.3-5.1-24.2h-1h-1.8h-1
						c-12.8,1-5.1,19.2-5.1,24.2c0,1.6-0.2,3.7-0.3,4.9c-0.8,8.6-9.4,24.6-9.4,33.3c0,18.3,6.6,29.8,6.6,29.8h8.2h1h1.8h1h8.2
						c0,0,6.6-11.6,6.6-29.8C618.1,262.4,609.5,246.4,608.6,237.8z"/>
					<g id="XMLID_112_">
						<path id="XMLID_113_" class="st11" d="M608.6,237.8c-0.1-1.2-0.3-3.3-0.3-4.9c0-5.1,7.6-23.3-5.1-24.2h-1h-1.8h-1
							c-0.4,0-0.7,0.1-1,0.1c14.9,3.5,4.1,19.2,4.1,24.1c0,1.6,0.2,3.7,0.3,4.9c0.8,8.6,8.1,21.6,8.1,30.3
							c0,21.8-14.7,32.8-14.7,32.8h15.1c0,0,7-11.6,6.6-29.8C617.8,261.8,609.2,245.8,608.6,237.8z"/>
					</g>
					<path id="XMLID_111_" class="st12" d="M594.1,238.3h14.6c0-0.2,0-0.3-0.1-0.5c-0.1-1.2-0.3-3.3-0.3-4.9c0-0.3,0-0.6,0.1-0.9
						h-14.1c0,0.3,0.1,0.6,0.1,0.9c0,1.6-0.2,3.7-0.3,4.9C594.1,238,594.1,238.2,594.1,238.3z"/>
					<path id="XMLID_110_" class="st13" d="M608.4,232.9c0-0.1,0-0.1,0-0.2c0,0,0-0.1,0-0.1c0,0,0-0.1,0-0.1c0-0.1,0-0.1,0-0.2
						c0,0,0,0,0,0c0-0.1,0-0.1,0-0.2h-5.7c-0.1,0.3-0.1,0.6-0.1,0.9c0,1.6,0.2,3.7,0.3,4.9c0,0.2,0,0.3,0.1,0.5h5.7
						c0-0.2,0-0.3,0-0.5C608.5,236.6,608.4,234.5,608.4,232.9z"/>
				</g>
				<g id="XMLID_104_">
					<path id="XMLID_108_" class="st1" d="M648.1,237.8c-0.1-1.2-0.3-3.3-0.3-4.9c0-5.1,7.6-23.3-5.1-24.2h-1h-1.8h-1
						c-12.8,1-5.1,19.2-5.1,24.2c0,1.6-0.2,3.7-0.3,4.9c-0.8,8.6-9.4,24.6-9.4,33.3c0,18.3,6.6,29.8,6.6,29.8h8.2h1h1.8h1h8.2
						c0,0,6.6-11.6,6.6-29.8C657.5,262.4,648.9,246.4,648.1,237.8z"/>
					<path id="XMLID_107_" class="st11" d="M648.1,237.8c-0.1-1.2-0.3-3.3-0.3-4.9c0-5.1,7.6-23.3-5.1-24.2h-1h-1.8h-1
						c-0.4,0-0.7,0.1-1,0.1c14.9,3.5,4.1,19.2,4.1,24.1c0,1.6,0.2,3.7,0.3,4.9c0.8,8.6,8.1,21.6,8.1,30.3
						c0,21.8-14.7,32.8-14.7,32.8h15.1c0,0,7-11.6,6.6-29.8C657.3,261.8,648.7,245.8,648.1,237.8z"/>
					<path id="XMLID_106_" class="st12" d="M633.5,238.3h14.6c0-0.2,0-0.3-0.1-0.5c-0.1-1.2-0.3-3.3-0.3-4.9c0-0.3,0-0.6,0.1-0.9
						h-14.1c0,0.3,0.1,0.6,0.1,0.9c0,1.6-0.2,3.7-0.3,4.9C633.5,238,633.5,238.2,633.5,238.3z"/>
					<path id="XMLID_105_" class="st13" d="M647.8,232.9c0-0.1,0-0.1,0-0.2c0,0,0-0.1,0-0.1c0,0,0-0.1,0-0.1c0-0.1,0-0.1,0-0.2
						c0,0,0,0,0,0c0-0.1,0-0.1,0-0.2h-5.7c-0.1,0.3-0.1,0.6-0.1,0.9c0,1.6,0.2,3.7,0.3,4.9c0,0.2,0,0.3,0.1,0.5h5.7
						c0-0.2,0-0.3,0-0.5C648,236.6,647.8,234.5,647.8,232.9z"/>
				</g>
				<g id="XMLID_99_">
					<path id="XMLID_103_" class="st1" d="M687.5,237.8c-0.1-1.2-0.3-3.3-0.3-4.9c0-5.1,7.6-23.3-5.1-24.2h-1h-1.8h-1
						c-12.8,1-5.1,19.2-5.1,24.2c0,1.6-0.2,3.7-0.3,4.9c-0.8,8.6-9.4,24.6-9.4,33.3c0,18.3,6.6,29.8,6.6,29.8h8.2h1h1.8h1h8.2
						c0,0,6.6-11.6,6.6-29.8C697,262.4,688.3,246.4,687.5,237.8z"/>
					<path id="XMLID_102_" class="st11" d="M687.5,237.8c-0.1-1.2-0.3-3.3-0.3-4.9c0-5.1,7.6-23.3-5.1-24.2h-1h-1.8h-1
						c-0.4,0-0.7,0.1-1,0.1c14.9,3.5,4.1,19.2,4.1,24.1c0,1.6,0.2,3.7,0.3,4.9c0.8,8.6,8.1,21.6,8.1,30.3
						c0,21.8-14.7,32.8-14.7,32.8h15.1c0,0,7-11.6,6.6-29.8C696.7,261.8,688.1,245.8,687.5,237.8z"/>
					<path id="XMLID_101_" class="st12" d="M672.9,238.3h14.6c0-0.2,0-0.3-0.1-0.5c-0.1-1.2-0.3-3.3-0.3-4.9c0-0.3,0-0.6,0.1-0.9
						h-14.1c0,0.3,0.1,0.6,0.1,0.9c0,1.6-0.2,3.7-0.3,4.9C673,238,673,238.2,672.9,238.3z"/>
					<path id="XMLID_100_" class="st13" d="M687.3,232.9c0-0.1,0-0.1,0-0.2c0,0,0-0.1,0-0.1c0,0,0-0.1,0-0.1c0-0.1,0-0.1,0-0.2
						c0,0,0,0,0,0c0-0.1,0-0.1,0-0.2h-5.7c-0.1,0.3-0.1,0.6-0.1,0.9c0,1.6,0.2,3.7,0.3,4.9c0,0.2,0,0.3,0.1,0.5h5.7
						c0-0.2,0-0.3,0-0.5C687.4,236.6,687.3,234.5,687.3,232.9z"/>
				</g>
				<g id="XMLID_94_">
					<path id="XMLID_98_" class="st1" d="M727,237.8c-0.1-1.2-0.3-3.3-0.3-4.9c0-5.1,7.6-23.3-5.1-24.2h-1h-1.8h-1
						c-12.8,1-5.1,19.2-5.1,24.2c0,1.6-0.2,3.7-0.3,4.9c-0.8,8.6-9.4,24.6-9.4,33.3c0,18.3,6.6,29.8,6.6,29.8h8.2h1h1.8h1h8.2
						c0,0,6.6-11.6,6.6-29.8C736.4,262.4,727.8,246.4,727,237.8z"/>
					<path id="XMLID_97_" class="st11" d="M727,237.8c-0.1-1.2-0.3-3.3-0.3-4.9c0-5.1,7.6-23.3-5.1-24.2h-1h-1.8h-1
						c-0.4,0-0.7,0.1-1,0.1c14.9,3.5,4.1,19.2,4.1,24.1c0,1.6,0.2,3.7,0.3,4.9c0.8,8.6,8.1,21.6,8.1,30.3
						c0,21.8-14.7,32.8-14.7,32.8h15.1c0,0,7-11.6,6.6-29.8C736.2,261.8,727.6,245.8,727,237.8z"/>
					<path id="XMLID_96_" class="st12" d="M712.4,238.3H727c0-0.2,0-0.3-0.1-0.5c-0.1-1.2-0.3-3.3-0.3-4.9c0-0.3,0-0.6,0.1-0.9
						h-14.1c0,0.3,0.1,0.6,0.1,0.9c0,1.6-0.2,3.7-0.3,4.9C712.4,238,712.4,238.2,712.4,238.3z"/>
					<path id="XMLID_95_" class="st13" d="M726.7,232.9c0-0.1,0-0.1,0-0.2c0,0,0-0.1,0-0.1c0,0,0-0.1,0-0.1c0-0.1,0-0.1,0-0.2
						c0,0,0,0,0,0c0-0.1,0-0.1,0-0.2h-5.7c-0.1,0.3-0.1,0.6-0.1,0.9c0,1.6,0.2,3.7,0.3,4.9c0,0.2,0,0.3,0.1,0.5h5.7
						c0-0.2,0-0.3,0-0.5C726.9,236.6,726.7,234.5,726.7,232.9z"/>
				</g>
				<g id="XMLID_139_">
					<path id="XMLID_144_" class="st1" d="M196.6,237.8c-0.1-1.2-0.3-3.3-0.3-4.9c0-5.1,7.6-23.3-5.1-24.2h-1h-1.8h-1
						c-12.8,1-5.1,19.2-5.1,24.2c0,1.6-0.2,3.7-0.3,4.9c-0.8,8.6-9.4,24.6-9.4,33.3c0,18.3,6.6,29.8,6.6,29.8h8.2h1h1.8h1h8.2
						c0,0,6.6-11.6,6.6-29.8C206,262.4,197.4,246.4,196.6,237.8z"/>
					<g id="XMLID_142_">
						<path id="XMLID_143_" class="st11" d="M196.6,237.8c-0.1-1.2-0.3-3.3-0.3-4.9c0-5.1,7.6-23.3-5.1-24.2h-1h-1.8h-1
							c-0.4,0-0.7,0.1-1,0.1c14.9,3.5,4.1,19.2,4.1,24.1c0,1.6,0.2,3.7,0.3,4.9c0.8,8.6,8.1,21.6,8.1,30.3
							c0,21.8-14.7,32.8-14.7,32.8h15.1c0,0,7-11.6,6.6-29.8C205.8,261.8,197.2,245.8,196.6,237.8z"/>
					</g>
					<path id="XMLID_141_" class="st12" d="M182,238.3h14.6c0-0.2,0-0.3-0.1-0.5c-0.1-1.2-0.3-3.3-0.3-4.9c0-0.3,0-0.6,0.1-0.9
						h-14.1c0,0.3,0.1,0.6,0.1,0.9c0,1.6-0.2,3.7-0.3,4.9C182.1,238,182,238.2,182,238.3z"/>
					<path id="XMLID_140_" class="st13" d="M196.3,232.9c0-0.1,0-0.1,0-0.2c0,0,0-0.1,0-0.1c0,0,0-0.1,0-0.1c0-0.1,0-0.1,0-0.2
						c0,0,0,0,0,0c0-0.1,0-0.1,0-0.2h-5.7c-0.1,0.3-0.1,0.6-0.1,0.9c0,1.6,0.2,3.7,0.3,4.9c0,0.2,0,0.3,0.1,0.5h5.7
						c0-0.2,0-0.3,0-0.5C196.5,236.6,196.3,234.5,196.3,232.9z"/>
				</g>
				<g id="XMLID_134_">
					<path id="XMLID_138_" class="st1" d="M236.1,237.8c-0.1-1.2-0.3-3.3-0.3-4.9c0-5.1,7.6-23.3-5.1-24.2h-1h-1.8h-1
						c-12.8,1-5.1,19.2-5.1,24.2c0,1.6-0.2,3.7-0.3,4.9c-0.8,8.6-9.4,24.6-9.4,33.3c0,18.3,6.6,29.8,6.6,29.8h8.2h1h1.8h1h8.2
						c0,0,6.6-11.6,6.6-29.8C245.5,262.4,236.9,246.4,236.1,237.8z"/>
					<path id="XMLID_137_" class="st11" d="M236.1,237.8c-0.1-1.2-0.3-3.3-0.3-4.9c0-5.1,7.6-23.3-5.1-24.2h-1h-1.8h-1
						c-0.4,0-0.7,0.1-1,0.1c14.9,3.5,4.1,19.2,4.1,24.1c0,1.6,0.2,3.7,0.3,4.9c0.8,8.6,8.1,21.6,8.1,30.3
						c0,21.8-14.7,32.8-14.7,32.8h15.1c0,0,7-11.6,6.6-29.8C245.3,261.8,236.6,245.8,236.1,237.8z"/>
					<path id="XMLID_136_" class="st12" d="M221.5,238.3h14.6c0-0.2,0-0.3-0.1-0.5c-0.1-1.2-0.3-3.3-0.3-4.9c0-0.3,0-0.6,0.1-0.9
						h-14.1c0,0.3,0.1,0.6,0.1,0.9c0,1.6-0.2,3.7-0.3,4.9C221.5,238,221.5,238.2,221.5,238.3z"/>
					<path id="XMLID_135_" class="st13" d="M235.8,232.9c0-0.1,0-0.1,0-0.2c0,0,0-0.1,0-0.1c0,0,0-0.1,0-0.1c0-0.1,0-0.1,0-0.2
						c0,0,0,0,0,0c0-0.1,0-0.1,0-0.2h-5.7c-0.1,0.3-0.1,0.6-0.1,0.9c0,1.6,0.2,3.7,0.3,4.9c0,0.2,0,0.3,0.1,0.5h5.7
						c0-0.2,0-0.3,0-0.5C236,236.6,235.8,234.5,235.8,232.9z"/>
				</g>
				<g id="XMLID_129_">
					<path id="XMLID_133_" class="st1" d="M275.5,237.8c-0.1-1.2-0.3-3.3-0.3-4.9c0-5.1,7.6-23.3-5.1-24.2h-1h-1.8h-1
						c-12.8,1-5.1,19.2-5.1,24.2c0,1.6-0.2,3.7-0.3,4.9c-0.8,8.6-9.4,24.6-9.4,33.3c0,18.3,6.6,29.8,6.6,29.8h8.2h1h1.8h1h8.2
						c0,0,6.6-11.6,6.6-29.8C284.9,262.4,276.3,246.4,275.5,237.8z"/>
					<path id="XMLID_132_" class="st11" d="M275.5,237.8c-0.1-1.2-0.3-3.3-0.3-4.9c0-5.1,7.6-23.3-5.1-24.2h-1h-1.8h-1
						c-0.4,0-0.7,0.1-1,0.1c14.9,3.5,4.1,19.2,4.1,24.1c0,1.6,0.2,3.7,0.3,4.9c0.8,8.6,8.1,21.6,8.1,30.3
						c0,21.8-14.7,32.8-14.7,32.8h15.1c0,0,7-11.6,6.6-29.8C284.7,261.8,276.1,245.8,275.5,237.8z"/>
					<path id="XMLID_131_" class="st12" d="M260.9,238.3h14.6c0-0.2,0-0.3-0.1-0.5c-0.1-1.2-0.3-3.3-0.3-4.9c0-0.3,0-0.6,0.1-0.9
						h-14.1c0,0.3,0.1,0.6,0.1,0.9c0,1.6-0.2,3.7-0.3,4.9C261,238,260.9,238.2,260.9,238.3z"/>
					<path id="XMLID_130_" class="st13" d="M275.2,232.9c0-0.1,0-0.1,0-0.2c0,0,0-0.1,0-0.1c0,0,0-0.1,0-0.1c0-0.1,0-0.1,0-0.2
						c0,0,0,0,0,0c0-0.1,0-0.1,0-0.2h-5.7c-0.1,0.3-0.1,0.6-0.1,0.9c0,1.6,0.2,3.7,0.3,4.9c0,0.2,0,0.3,0.1,0.5h5.7
						c0-0.2,0-0.3,0-0.5C275.4,236.6,275.2,234.5,275.2,232.9z"/>
				</g>
				<g id="XMLID_124_">
					<path id="XMLID_128_" class="st1" d="M315,237.8c-0.1-1.2-0.3-3.3-0.3-4.9c0-5.1,7.6-23.3-5.1-24.2h-1h-1.8h-1
						c-12.8,1-5.1,19.2-5.1,24.2c0,1.6-0.2,3.7-0.3,4.9c-0.8,8.6-9.4,24.6-9.4,33.3c0,18.3,6.6,29.8,6.6,29.8h8.2h1h1.8h1h8.2
						c0,0,6.6-11.6,6.6-29.8C324.4,262.4,315.8,246.4,315,237.8z"/>
					<path id="XMLID_127_" class="st11" d="M315,237.8c-0.1-1.2-0.3-3.3-0.3-4.9c0-5.1,7.6-23.3-5.1-24.2h-1h-1.8h-1
						c-0.4,0-0.7,0.1-1,0.1c14.9,3.5,4.1,19.2,4.1,24.1c0,1.6,0.2,3.7,0.3,4.9c0.8,8.6,8.1,21.6,8.1,30.3
						c0,21.8-14.7,32.8-14.7,32.8h15.1c0,0,7-11.6,6.6-29.8C324.2,261.8,315.5,245.8,315,237.8z"/>
					<path id="XMLID_126_" class="st12" d="M300.4,238.3H315c0-0.2,0-0.3-0.1-0.5c-0.1-1.2-0.3-3.3-0.3-4.9c0-0.3,0-0.6,0.1-0.9
						h-14.1c0,0.3,0.1,0.6,0.1,0.9c0,1.6-0.2,3.7-0.3,4.9C300.4,238,300.4,238.2,300.4,238.3z"/>
					<path id="XMLID_125_" class="st13" d="M314.7,232.9c0-0.1,0-0.1,0-0.2c0,0,0-0.1,0-0.1c0,0,0-0.1,0-0.1c0-0.1,0-0.1,0-0.2
						c0,0,0,0,0,0c0-0.1,0-0.1,0-0.2H309c-0.1,0.3-0.1,0.6-0.1,0.9c0,1.6,0.2,3.7,0.3,4.9c0,0.2,0,0.3,0.1,0.5h5.7
						c0-0.2,0-0.3,0-0.5C314.9,236.6,314.7,234.5,314.7,232.9z"/>
				</g>
				<g id="XMLID_89_">
					<path id="XMLID_93_" class="st1" d="M719.4,280.2c-1.2,0.1-3.3,0.3-4.9,0.3c-5.1,0-23.3-7.6-24.2,5.1v1v1.8v1
						c1,12.8,19.2,5.1,24.2,5.1c1.6,0,3.7,0.2,4.9,0.3c8.6,0.8,24.6,9.4,33.3,9.4c18.3,0,29.8-6.6,29.8-6.6v-8.2v-1v-1.8v-1v-8.2
						c0,0-11.6-6.6-29.8-6.6C744,270.7,728,279.4,719.4,280.2z"/>
					<path id="XMLID_92_" class="st11" d="M719.4,280.2c-1.2,0.1-3.3,0.3-4.9,0.3c-5.1,0-23.3-7.6-24.2,5.1v1v1.8v1
						c0,0.4,0.1,0.7,0.1,1c3.5-14.9,19.2-4.1,24.1-4.1c1.6,0,3.7-0.2,4.9-0.3c8.6-0.8,21.6-8.1,30.3-8.1c21.8,0,32.8,14.7,32.8,14.7
						v-15.1c0,0-11.6-7-29.8-6.6C743.4,271,727.4,279.6,719.4,280.2z"/>
					<path id="XMLID_91_" class="st12" d="M719.9,294.8v-14.6c-0.2,0-0.3,0-0.5,0.1c-1.2,0.1-3.3,0.3-4.9,0.3c-0.3,0-0.6,0-0.9-0.1
						v14.1c0.3,0,0.6-0.1,0.9-0.1c1.6,0,3.7,0.2,4.9,0.3C719.6,294.7,719.8,294.7,719.9,294.8z"/>
					<path id="XMLID_90_" class="st13" d="M714.5,280.4c-0.1,0-0.1,0-0.2,0c0,0-0.1,0-0.1,0c0,0-0.1,0-0.1,0c-0.1,0-0.1,0-0.2,0
						c0,0,0,0,0,0c-0.1,0-0.1,0-0.2,0v5.7c0.3,0.1,0.6,0.1,0.9,0.1c1.6,0,3.7-0.2,4.9-0.3c0.2,0,0.3,0,0.5-0.1v-5.7
						c-0.2,0-0.3,0-0.5,0C718.2,280.3,716.1,280.4,714.5,280.4z"/>
				</g>
				<g id="XMLID_83_">
					<path id="XMLID_88_" class="st1" d="M805.9,237.8c-0.1-1.2-0.3-3.3-0.3-4.9c0-5.1,7.6-23.3-5.1-24.2h-1h-1.8h-1
						c-12.8,1-5.1,19.2-5.1,24.2c0,1.6-0.2,3.7-0.3,4.9c-0.8,8.6-9.4,24.6-9.4,33.3c0,18.3,6.6,29.8,6.6,29.8h8.2h1h1.8h1h8.2
						c0,0,6.6-11.6,6.6-29.8C815.3,262.4,806.7,246.4,805.9,237.8z"/>
					<g id="XMLID_86_">
						<path id="XMLID_87_" class="st11" d="M805.9,237.8c-0.1-1.2-0.3-3.3-0.3-4.9c0-5.1,7.6-23.3-5.1-24.2h-1h-1.8h-1
							c-0.4,0-0.7,0.1-1,0.1c14.9,3.5,4.1,19.2,4.1,24.1c0,1.6,0.2,3.7,0.3,4.9c0.8,8.6,8.1,21.6,8.1,30.3
							c0,21.8-14.7,32.8-14.7,32.8h15.1c0,0,7-11.6,6.6-29.8C815.1,261.8,806.4,245.8,805.9,237.8z"/>
					</g>
					<path id="XMLID_85_" class="st12" d="M791.3,238.3h14.6c0-0.2,0-0.3-0.1-0.5c-0.1-1.2-0.3-3.3-0.3-4.9c0-0.3,0-0.6,0.1-0.9
						h-14.1c0,0.3,0.1,0.6,0.1,0.9c0,1.6-0.2,3.7-0.3,4.9C791.3,238,791.3,238.2,791.3,238.3z"/>
					<path id="XMLID_84_" class="st13" d="M805.6,232.9c0-0.1,0-0.1,0-0.2c0,0,0-0.1,0-0.1c0,0,0-0.1,0-0.1c0-0.1,0-0.1,0-0.2
						c0,0,0,0,0,0c0-0.1,0-0.1,0-0.2h-5.7c-0.1,0.3-0.1,0.6-0.1,0.9c0,1.6,0.2,3.7,0.3,4.9c0,0.2,0,0.3,0.1,0.5h5.7
						c0-0.2,0-0.3,0-0.5C805.8,236.6,805.6,234.5,805.6,232.9z"/>
				</g>
			</g>
			<g id="XMLID_26_">
				<circle id="XMLID_20_" class="st3" cx="511.4" cy="807.1" r="89.1"/>
				<path id="XMLID_24_" class="st4" d="M592.6,770.5c-13.2-29.2-41.6-50-75.1-52.3c-37.6,2.7-67.4,34.1-67.4,72.5
					c0,40.1,32.5,72.7,72.7,72.7c40.1,0,72.7-32.5,72.7-72.7C595.5,783.7,594.5,776.9,592.6,770.5z"/>
				<circle id="XMLID_21_" class="st3" cx="545" cy="784.4" r="8.5"/>
				<circle id="XMLID_23_" class="st3" cx="556.4" cy="765" r="8.5"/>
				<circle id="XMLID_25_" class="st3" cx="570.5" cy="782" r="8.5"/>
				
					<ellipse id="XMLID_22_" transform="matrix(0.9178 -0.3971 0.3971 0.9178 -258.1737 249.6962)" class="st7" cx="473.8" cy="748.2" rx="23" ry="11.2"/>
			</g>
			<g id="XMLID_145_">
				<circle id="XMLID_151_" class="st13" cx="121.1" cy="337.4" r="18.8"/>
				<path id="XMLID_150_" class="st12" d="M138.3,329.7c-2.8-6.2-8.8-10.6-15.9-11c-8,0.6-14.2,7.2-14.2,15.3
					c0,8.5,6.9,15.4,15.4,15.4s15.4-6.9,15.4-15.4C138.9,332.5,138.7,331,138.3,329.7z"/>
				<circle id="XMLID_149_" class="st13" cx="117.4" cy="338.5" r="1.8"/>
				<circle id="XMLID_148_" class="st13" cx="119.8" cy="334.4" r="1.8"/>
				<circle id="XMLID_147_" class="st13" cx="122.7" cy="338" r="1.8"/>
				
					<ellipse id="XMLID_146_" transform="matrix(0.9178 -0.3971 0.3971 0.9178 -119.7495 71.6781)" class="st14" cx="113.2" cy="325" rx="4.9" ry="2.4"/>
			</g>
			<rect id="XMLID_29_" x="516.2" y="137.5" class="st5" width="19" height="159.5"/>
			<rect id="XMLID_120_" x="431.1" y="137.5" class="st5" width="19" height="159.5"/>
			<rect id="XMLID_49_" x="82.6" y="137.5" class="st5" width="19" height="159.5"/>
			<rect id="XMLID_123_" x="-2.6" y="137.5" class="st5" width="19" height="159.5"/>
			<rect id="XMLID_36_" x="450.2" y="137.5" class="st15" width="66.1" height="159.5"/>
			<polygon id="XMLID_37_" class="st10" points="-11,500 -11,556.8 516.2,297 450.2,297 			"/>
			<rect id="XMLID_122_" x="16.4" y="137.5" class="st15" width="66.1" height="159.5"/>
			<rect id="XMLID_191_" x="966.9" y="137.5" class="st2" width="335.6" height="159.5"/>
			<path id="XMLID_190_" class="st3" d="M1080.7,302.7c-8.7,0-24.7-8.6-33.3-9.4c-1.2-0.1-3.3-0.3-4.9-0.3c-0.1,0-0.3,0-0.5,0
				c-0.1,0-0.2,0-0.2,0c-5.9,0.6-22.6,7.1-23.5-5.2v-1v-1.8v-1c0-0.4,0.1-0.7,0.1-1c0,0,0,0,0,0c1.8-10.8,17.7-4.7,23.4-4.2
				c0.1,0,0.2,0,0.2,0c0.2,0,0.3,0,0.5,0c1.6,0,3.7-0.2,4.9-0.3c8.6-0.8,24.6-9.4,33.3-9.4c18.3,0,29.8,6.6,29.8,6.6v5v3.2v1v1.8v1
				v8.2C1110.6,296.1,1099,303.2,1080.7,302.7z"/>
			<path id="XMLID_189_" class="st3" d="M1129.1,269c0-8.7,8.6-24.7,9.4-33.3c0.1-1.2,0.3-3.3,0.3-4.9c0-0.1,0-0.3,0-0.5
				c0-0.1,0-0.2,0-0.2c-0.6-5.9-7.1-22.6,5.2-23.5h1h1.8h1c0.4,0,0.7,0.1,1,0.1c0,0,0,0,0,0c10.8,1.8,4.7,17.7,4.2,23.4
				c0,0.1,0,0.2,0,0.2c0,0.2,0,0.3,0,0.5c0,1.6,0.2,3.7,0.3,4.9c0.8,8.6,9.4,24.6,9.4,33.3c0,18.3-6.6,29.8-6.6,29.8h-5h-3.2h-1
				h-1.8h-1h-8.2C1135.7,298.8,1128.6,287.2,1129.1,269z"/>
			<path id="XMLID_188_" class="st3" d="M1212.4,269c0-8.7,8.6-24.7,9.4-33.3c0.1-1.2,0.3-3.3,0.3-4.9c0-0.1,0-0.3,0-0.5
				c0-0.1,0-0.2,0-0.2c-0.6-5.9-7.1-22.6,5.2-23.5h1h1.8h1c0.4,0,0.7,0.1,1,0.1c0,0,0,0,0,0c10.8,1.8,4.7,17.7,4.2,23.4
				c0,0.1,0,0.2,0,0.2c0,0.2,0,0.3,0,0.5c0,1.6,0.2,3.7,0.3,4.9c0.8,8.6,9.4,24.6,9.4,33.3c0,18.3-6.6,29.8-6.6,29.8h-5h-3.2h-1
				h-1.8h-1h-8.2C1219,298.8,1211.9,287.2,1212.4,269z"/>
			<path id="XMLID_187_" class="st3" d="M1009,269c0-8.7,8.6-24.7,9.4-33.3c0.1-1.2,0.3-3.3,0.3-4.9c0-0.1,0-0.3,0-0.5
				c0-0.1,0-0.2,0-0.2c-0.6-5.9-7.1-22.6,5.2-23.5h1h1.8h1c0.4,0,0.7,0.1,1,0.1c0,0,0,0,0,0c10.8,1.8,4.7,17.7,4.2,23.4
				c0,0.1,0,0.2,0,0.2c0,0.2,0,0.3,0,0.5c0,1.6,0.2,3.7,0.3,4.9c0.8,8.6,9.4,24.6,9.4,33.3c0,18.3-6.6,29.8-6.6,29.8h-5h-3.2h-1
				h-1.8h-1h-8.2C1015.6,298.8,1008.5,287.2,1009,269z"/>
			<path id="XMLID_186_" class="st3" d="M1201.6,274.3c8.7,0,24.7,8.6,33.3,9.4c1.2,0.1,3.3,0.3,4.9,0.3c0.1,0,0.3,0,0.5,0
				c0.1,0,0.2,0,0.2,0c5.9-0.6,22.6-7.1,23.5,5.2v1v1.8v1c0,0.4-0.1,0.7-0.1,1c0,0,0,0,0,0c-1.8,10.8-17.7,4.7-23.4,4.2
				c-0.1,0-0.2,0-0.2,0c-0.2,0-0.3,0-0.5,0c-1.6,0-3.7,0.2-4.9,0.3c-8.6,0.8-24.6,9.4-33.3,9.4c-18.3,0-29.8-6.6-29.8-6.6v-5v-3.2
				v-1v-1.8v-1v-8.2C1171.8,280.9,1183.4,273.9,1201.6,274.3z"/>
			<g id="XMLID_154_">
				<path id="XMLID_185_" class="st8" d="M1451.3,526.5L885.5,295.7h22.2c0.6,0.8,1.5,1.3,2.8,1.3h540.8V526.5z"/>
				<path id="XMLID_230_" class="st9" d="M947.5,297l159.5,0l167.7,0h108.6l54.4,41c-25.5,37.8-96.4,57.5-179.9,57.5
					C1173.8,395.5,972.6,335.1,947.5,297z"/>
				<ellipse id="XMLID_184_" class="st9" cx="1339.5" cy="376.6" rx="21.1" ry="11.5"/>
				<g id="XMLID_157_">
					<polygon id="XMLID_183_" class="st10" points="1451.3,318.4 1346,297 1349.1,297 1451.3,317.7 					"/>
					<polygon id="XMLID_182_" class="st10" points="1451.3,325 1317.5,297 1320.3,297 1451.3,324.4 					"/>
					<polygon id="XMLID_181_" class="st10" points="1451.3,332.8 1285.4,297 1288.1,297 1451.3,332.2 					"/>
					<polygon id="XMLID_180_" class="st10" points="1451.3,340.5 1255.7,297 1258.2,297 1451.3,340 					"/>
					<polygon id="XMLID_179_" class="st10" points="1451.3,349.5 1222.9,297 1225.2,297 1451.3,349 					"/>
					<polygon id="XMLID_176_" class="st10" points="1451.3,359.3 1189.3,297 1191.5,297 1451.3,358.7 					"/>
					<polygon id="XMLID_175_" class="st10" points="1451.3,367.8 1163.5,297 1165.6,297 1451.3,367.3 					"/>
					<polygon id="XMLID_174_" class="st10" points="1451.3,377.8 1134.6,297 1136.6,297 1451.3,377.2 					"/>
					<polygon id="XMLID_173_" class="st10" points="1451.3,410.5 1022.6,297 1024.6,297 1451.3,409.9 					"/>
					<polygon id="XMLID_172_" class="st10" points="1451.3,405.2 1042.3,297 1044.3,297 1451.3,404.7 					"/>
					<polygon id="XMLID_171_" class="st10" points="1451.3,399.4 1064.5,297 1066.5,297 1451.3,398.9 					"/>
					<polygon id="XMLID_170_" class="st10" points="1451.3,392.4 1090.8,297 1092.9,297 1451.3,391.9 					"/>
					<polygon id="XMLID_169_" class="st10" points="1451.3,386.8 1112.1,297 1114.1,297 1451.3,386.2 					"/>
					<polygon id="XMLID_167_" class="st10" points="1451.3,419.3 1006.8,297 1008.8,297 1451.3,418.7 					"/>
					<polygon id="XMLID_166_" class="st10" points="1451.3,430.4 985.3,297 987.4,297 1451.3,429.8 					"/>
					<polygon id="XMLID_165_" class="st10" points="1451.3,440.6 970.6,297 972.8,297 1451.3,439.9 					"/>
					<polygon id="XMLID_164_" class="st10" points="1451.3,451.6 955.8,297 958.1,297 1451.3,450.9 					"/>
					<polygon id="XMLID_163_" class="st10" points="1451.3,463.6 941,297 943.5,297 1451.3,462.8 					"/>
					<polygon id="XMLID_160_" class="st10" points="1451.3,476.9 926.2,297 928.9,297 1451.3,476 					"/>
					<polygon id="XMLID_159_" class="st10" points="1451.3,491.5 911.4,297 914.2,297 1451.3,490.5 					"/>
					<polygon id="XMLID_158_" class="st10" points="1451.3,507.7 893.2,295.7 896.3,295.7 1451.3,506.5 					"/>
				</g>
			</g>
			<rect id="XMLID_121_" x="949.8" y="137.5" class="st5" width="19" height="159.5"/>
			<rect id="XMLID_117_" x="1298.3" y="137.5" class="st5" width="19" height="159.5"/>
			<rect id="XMLID_82_" x="1383.5" y="137.5" class="st5" width="19" height="159.5"/>
			<rect id="XMLID_76_" x="1317.5" y="137.5" class="st15" width="66.1" height="159.5"/>
			<polygon id="XMLID_51_" class="st10" points="-51.3,324.8 82.5,297 16.4,297 -51.3,306.8 			"/>
			<polygon id="XMLID_236_" class="st4" points="1383.6,297 1405.5,297 1416.5,307.5 			"/>
			<polygon id="XMLID_234_" class="st10" points="1451.3,324.8 1317.5,297 1383.6,297 1451.3,306.8 			"/>
			<rect id="XMLID_41_" x="883.8" y="137.5" class="st15" width="66.1" height="159.5"/>
			<polygon id="XMLID_40_" class="st10" points="1411,500 1411,556.8 883.8,297 949.8,297 			"/>
			<g id="XMLID_208_">
				<path id="XMLID_212_" class="st1" d="M1048.7,237.8c-0.1-1.2-0.3-3.3-0.3-4.9c0-5.1,7.6-23.3-5.1-24.2h-1h-1.8h-1
					c-12.8,1-5.1,19.2-5.1,24.2c0,1.6-0.2,3.7-0.3,4.9c-0.8,8.6-9.4,24.6-9.4,33.3c0,18.3,6.6,29.8,6.6,29.8h8.2h1h1.8h1h8.2
					c0,0,6.6-11.6,6.6-29.8C1058.1,262.4,1049.5,246.4,1048.7,237.8z"/>
				<path id="XMLID_211_" class="st11" d="M1048.7,237.8c-0.1-1.2-0.3-3.3-0.3-4.9c0-5.1,7.6-23.3-5.1-24.2h-1h-1.8h-1
					c-0.4,0-0.7,0.1-1,0.1c14.9,3.5,4.1,19.2,4.1,24.1c0,1.6,0.2,3.7,0.3,4.9c0.8,8.6,8.1,21.6,8.1,30.3c0,21.8-14.7,32.8-14.7,32.8
					h15.1c0,0,7-11.6,6.6-29.8C1057.9,261.8,1049.3,245.8,1048.7,237.8z"/>
				<path id="XMLID_210_" class="st12" d="M1034.1,238.3h14.6c0-0.2,0-0.3-0.1-0.5c-0.1-1.2-0.3-3.3-0.3-4.9c0-0.3,0-0.6,0.1-0.9
					h-14.1c0,0.3,0.1,0.6,0.1,0.9c0,1.6-0.2,3.7-0.3,4.9C1034.2,238,1034.1,238.2,1034.1,238.3z"/>
				<path id="XMLID_209_" class="st13" d="M1048.4,232.9c0-0.1,0-0.1,0-0.2c0,0,0-0.1,0-0.1c0,0,0-0.1,0-0.1c0-0.1,0-0.1,0-0.2
					c0,0,0,0,0,0c0-0.1,0-0.1,0-0.2h-5.7c-0.1,0.3-0.1,0.6-0.1,0.9c0,1.6,0.2,3.7,0.3,4.9c0,0.2,0,0.3,0.1,0.5h5.7
					c0-0.2,0-0.3,0-0.5C1048.6,236.6,1048.4,234.5,1048.4,232.9z"/>
			</g>
			<g id="XMLID_203_">
				<path id="XMLID_207_" class="st1" d="M1088.2,237.8c-0.1-1.2-0.3-3.3-0.3-4.9c0-5.1,7.6-23.3-5.1-24.2h-1h-1.8h-1
					c-12.8,1-5.1,19.2-5.1,24.2c0,1.6-0.2,3.7-0.3,4.9c-0.8,8.6-9.4,24.6-9.4,33.3c0,18.3,6.6,29.8,6.6,29.8h8.2h1h1.8h1h8.2
					c0,0,6.6-11.6,6.6-29.8C1097.6,262.4,1089,246.4,1088.2,237.8z"/>
				<path id="XMLID_206_" class="st11" d="M1088.2,237.8c-0.1-1.2-0.3-3.3-0.3-4.9c0-5.1,7.6-23.3-5.1-24.2h-1h-1.8h-1
					c-0.4,0-0.7,0.1-1,0.1c14.9,3.5,4.1,19.2,4.1,24.1c0,1.6,0.2,3.7,0.3,4.9c0.8,8.6,8.1,21.6,8.1,30.3c0,21.8-14.7,32.8-14.7,32.8
					h15.1c0,0,7-11.6,6.6-29.8C1097.4,261.8,1088.7,245.8,1088.2,237.8z"/>
				<path id="XMLID_205_" class="st12" d="M1073.6,238.3h14.6c0-0.2,0-0.3-0.1-0.5c-0.1-1.2-0.3-3.3-0.3-4.9c0-0.3,0-0.6,0.1-0.9
					h-14.1c0,0.3,0.1,0.6,0.1,0.9c0,1.6-0.2,3.7-0.3,4.9C1073.6,238,1073.6,238.2,1073.6,238.3z"/>
				<path id="XMLID_204_" class="st13" d="M1087.9,232.9c0-0.1,0-0.1,0-0.2c0,0,0-0.1,0-0.1c0,0,0-0.1,0-0.1c0-0.1,0-0.1,0-0.2
					c0,0,0,0,0,0c0-0.1,0-0.1,0-0.2h-5.7c-0.1,0.3-0.1,0.6-0.1,0.9c0,1.6,0.2,3.7,0.3,4.9c0,0.2,0,0.3,0.1,0.5h5.7
					c0-0.2,0-0.3,0-0.5C1088.1,236.6,1087.9,234.5,1087.9,232.9z"/>
			</g>
			<g id="XMLID_193_">
				<path id="XMLID_202_" class="st1" d="M1127.6,237.8c-0.1-1.2-0.3-3.3-0.3-4.9c0-5.1,7.6-23.3-5.1-24.2h-1h-1.8h-1
					c-12.8,1-5.1,19.2-5.1,24.2c0,1.6-0.2,3.7-0.3,4.9c-0.8,8.6-9.4,24.6-9.4,33.3c0,18.3,6.6,29.8,6.6,29.8h8.2h1h1.8h1h8.2
					c0,0,6.6-11.6,6.6-29.8C1137,262.4,1128.4,246.4,1127.6,237.8z"/>
				<path id="XMLID_201_" class="st11" d="M1127.6,237.8c-0.1-1.2-0.3-3.3-0.3-4.9c0-5.1,7.6-23.3-5.1-24.2h-1h-1.8h-1
					c-0.4,0-0.7,0.1-1,0.1c14.9,3.5,4.1,19.2,4.1,24.1c0,1.6,0.2,3.7,0.3,4.9c0.8,8.6,8.1,21.6,8.1,30.3c0,21.8-14.7,32.8-14.7,32.8
					h15.1c0,0,7-11.6,6.6-29.8C1136.8,261.8,1128.2,245.8,1127.6,237.8z"/>
				<path id="XMLID_200_" class="st12" d="M1113,238.3h14.6c0-0.2,0-0.3-0.1-0.5c-0.1-1.2-0.3-3.3-0.3-4.9c0-0.3,0-0.6,0.1-0.9
					h-14.1c0,0.3,0.1,0.6,0.1,0.9c0,1.6-0.2,3.7-0.3,4.9C1113.1,238,1113,238.2,1113,238.3z"/>
				<path id="XMLID_199_" class="st13" d="M1127.3,232.9c0-0.1,0-0.1,0-0.2c0,0,0-0.1,0-0.1c0,0,0-0.1,0-0.1c0-0.1,0-0.1,0-0.2
					c0,0,0,0,0,0c0-0.1,0-0.1,0-0.2h-5.7c-0.1,0.3-0.1,0.6-0.1,0.9c0,1.6,0.2,3.7,0.3,4.9c0,0.2,0,0.3,0.1,0.5h5.7
					c0-0.2,0-0.3,0-0.5C1127.5,236.6,1127.3,234.5,1127.3,232.9z"/>
			</g>
			<g id="XMLID_223_">
				<path id="XMLID_227_" class="st1" d="M1171.4,237.8c-0.1-1.2-0.3-3.3-0.3-4.9c0-5.1,7.6-23.3-5.1-24.2h-1h-1.8h-1
					c-12.8,1-5.1,19.2-5.1,24.2c0,1.6-0.2,3.7-0.3,4.9c-0.8,8.6-9.4,24.6-9.4,33.3c0,18.3,6.6,29.8,6.6,29.8h8.2h1h1.8h1h8.2
					c0,0,6.6-11.6,6.6-29.8C1180.8,262.4,1172.2,246.4,1171.4,237.8z"/>
				<path id="XMLID_226_" class="st11" d="M1171.4,237.8c-0.1-1.2-0.3-3.3-0.3-4.9c0-5.1,7.6-23.3-5.1-24.2h-1h-1.8h-1
					c-0.4,0-0.7,0.1-1,0.1c14.9,3.5,4.1,19.2,4.1,24.1c0,1.6,0.2,3.7,0.3,4.9c0.8,8.6,8.1,21.6,8.1,30.3c0,21.8-14.7,32.8-14.7,32.8
					h15.1c0,0,7-11.6,6.6-29.8C1180.6,261.8,1171.9,245.8,1171.4,237.8z"/>
				<path id="XMLID_225_" class="st12" d="M1156.8,238.3h14.6c0-0.2,0-0.3-0.1-0.5c-0.1-1.2-0.3-3.3-0.3-4.9c0-0.3,0-0.6,0.1-0.9
					H1157c0,0.3,0.1,0.6,0.1,0.9c0,1.6-0.2,3.7-0.3,4.9C1156.8,238,1156.8,238.2,1156.8,238.3z"/>
				<path id="XMLID_224_" class="st13" d="M1171.1,232.9c0-0.1,0-0.1,0-0.2c0,0,0-0.1,0-0.1c0,0,0-0.1,0-0.1c0-0.1,0-0.1,0-0.2
					c0,0,0,0,0,0c0-0.1,0-0.1,0-0.2h-5.7c-0.1,0.3-0.1,0.6-0.1,0.9c0,1.6,0.2,3.7,0.3,4.9c0,0.2,0,0.3,0.1,0.5h5.7
					c0-0.2,0-0.3,0-0.5C1171.3,236.6,1171.1,234.5,1171.1,232.9z"/>
			</g>
			<g id="XMLID_218_">
				<path id="XMLID_222_" class="st1" d="M1210.8,237.8c-0.1-1.2-0.3-3.3-0.3-4.9c0-5.1,7.6-23.3-5.1-24.2h-1h-1.8h-1
					c-12.8,1-5.1,19.2-5.1,24.2c0,1.6-0.2,3.7-0.3,4.9c-0.8,8.6-9.4,24.6-9.4,33.3c0,18.3,6.6,29.8,6.6,29.8h8.2h1h1.8h1h8.2
					c0,0,6.6-11.6,6.6-29.8C1220.2,262.4,1211.6,246.4,1210.8,237.8z"/>
				<path id="XMLID_221_" class="st11" d="M1210.8,237.8c-0.1-1.2-0.3-3.3-0.3-4.9c0-5.1,7.6-23.3-5.1-24.2h-1h-1.8h-1
					c-0.4,0-0.7,0.1-1,0.1c14.9,3.5,4.1,19.2,4.1,24.1c0,1.6,0.2,3.7,0.3,4.9c0.8,8.6,8.1,21.6,8.1,30.3c0,21.8-14.7,32.8-14.7,32.8
					h15.1c0,0,7-11.6,6.6-29.8C1220,261.8,1211.4,245.8,1210.8,237.8z"/>
				<path id="XMLID_220_" class="st12" d="M1196.2,238.3h14.6c0-0.2,0-0.3-0.1-0.5c-0.1-1.2-0.3-3.3-0.3-4.9c0-0.3,0-0.6,0.1-0.9
					h-14.1c0,0.3,0.1,0.6,0.1,0.9c0,1.6-0.2,3.7-0.3,4.9C1196.3,238,1196.2,238.2,1196.2,238.3z"/>
				<path id="XMLID_219_" class="st13" d="M1210.5,232.9c0-0.1,0-0.1,0-0.2c0,0,0-0.1,0-0.1c0,0,0-0.1,0-0.1c0-0.1,0-0.1,0-0.2
					c0,0,0,0,0,0c0-0.1,0-0.1,0-0.2h-5.7c-0.1,0.3-0.1,0.6-0.1,0.9c0,1.6,0.2,3.7,0.3,4.9c0,0.2,0,0.3,0.1,0.5h5.7
					c0-0.2,0-0.3,0-0.5C1210.7,236.6,1210.5,234.5,1210.5,232.9z"/>
			</g>
			<g id="XMLID_213_">
				<path id="XMLID_217_" class="st1" d="M1250.2,237.8c-0.1-1.2-0.3-3.3-0.3-4.9c0-5.1,7.6-23.3-5.1-24.2h-1h-1.8h-1
					c-12.8,1-5.1,19.2-5.1,24.2c0,1.6-0.2,3.7-0.3,4.9c-0.8,8.6-9.4,24.6-9.4,33.3c0,18.3,6.6,29.8,6.6,29.8h8.2h1h1.8h1h8.2
					c0,0,6.6-11.6,6.6-29.8C1259.7,262.4,1251.1,246.4,1250.2,237.8z"/>
				<path id="XMLID_216_" class="st11" d="M1250.2,237.8c-0.1-1.2-0.3-3.3-0.3-4.9c0-5.1,7.6-23.3-5.1-24.2h-1h-1.8h-1
					c-0.4,0-0.7,0.1-1,0.1c14.9,3.5,4.1,19.2,4.1,24.1c0,1.6,0.2,3.7,0.3,4.9c0.8,8.6,8.1,21.6,8.1,30.3c0,21.8-14.7,32.8-14.7,32.8
					h15.1c0,0,7-11.6,6.6-29.8C1259.5,261.8,1250.8,245.8,1250.2,237.8z"/>
				<path id="XMLID_215_" class="st12" d="M1235.7,238.3h14.6c0-0.2,0-0.3-0.1-0.5c-0.1-1.2-0.3-3.3-0.3-4.9c0-0.3,0-0.6,0.1-0.9
					h-14.1c0,0.3,0.1,0.6,0.1,0.9c0,1.6-0.2,3.7-0.3,4.9C1235.7,238,1235.7,238.2,1235.7,238.3z"/>
				<path id="XMLID_214_" class="st13" d="M1250,232.9c0-0.1,0-0.1,0-0.2c0,0,0-0.1,0-0.1c0,0,0-0.1,0-0.1c0-0.1,0-0.1,0-0.2
					c0,0,0,0,0,0c0-0.1,0-0.1,0-0.2h-5.7c-0.1,0.3-0.1,0.6-0.1,0.9c0,1.6,0.2,3.7,0.3,4.9c0,0.2,0,0.3,0.1,0.5h5.7
					c0-0.2,0-0.3,0-0.5C1250.1,236.6,1250,234.5,1250,232.9z"/>
			</g>
		</g>
	</g>
</g>
</svg>
