# Blender v2.90.1 OBJ File: 'traffic_lights.blend'
# www.blender.org
mtllib traffic_lights.mtl
o Traffic_Lights_Cube.001
v -0.609210 -0.609210 1.000000
v -0.635702 1.364298 1.000000
v -0.639107 -0.639107 -1.000000
v -0.639107 0.639107 -1.000000
v 0.609210 -0.609210 1.000000
v 0.635702 1.364298 1.000000
v 0.639107 -0.639107 -1.000000
v 0.639107 0.639107 -1.000000
v -0.657419 3.381568 1.000000
v -0.492769 3.837743 -1.000000
v 0.492769 3.837743 -1.000000
v 0.657419 3.381568 1.000000
v -0.657419 4.652731 1.000000
v -0.492769 4.428665 -1.000000
v 0.492769 4.428665 -1.000000
v 0.657419 4.652731 1.000000
v 0.635702 2.674689 1.000000
v -0.635702 2.674689 1.000000
v 1.000000 4.995313 1.000000
v -1.000000 4.995313 1.000000
v 0.609210 0.609210 1.000000
v -0.609210 0.609210 1.000000
v 1.000000 3.038987 1.000000
v -1.000000 3.038987 1.000000
v -1.000000 -1.000000 1.000000
v -1.000000 1.000000 1.000000
v 1.000000 1.000000 1.000000
v 1.000000 -1.000000 1.000000
v 0.657419 3.381568 0.784521
v -0.657419 3.381568 0.784521
v 0.657419 4.652731 0.784521
v -0.657419 4.652731 0.784521
v 0.635702 1.364298 0.784521
v -0.635702 1.364298 0.784521
v 0.635702 2.674689 0.784521
v -0.635702 2.674689 0.784521
v -0.609210 -0.609210 0.784521
v -0.609210 0.609210 0.784521
v 0.609210 0.609210 0.784521
v 0.609210 -0.609210 0.784521
v -1.000000 1.000000 -1.000000
v -1.000000 -1.000000 -1.000000
v 1.000000 -1.000000 -1.000000
v 1.000000 1.000000 -1.000000
v -1.000000 3.038987 -1.000000
v 1.000000 3.038987 -1.000000
v -1.000000 4.995313 -1.000000
v 1.000000 4.995313 -1.000000
v -0.639107 3.399880 -1.000000
v 0.639107 3.399880 -1.000000
v -0.639107 4.634420 -1.000000
v 0.639107 4.634420 -1.000000
v -0.492769 3.837743 -1.180298
v 0.492769 3.837743 -1.180298
v -0.492769 4.428665 -1.180298
v 0.492769 4.428665 -1.180298
v 2.219296 3.837743 -1.000000
v 2.219296 4.428665 -1.000000
v -2.219296 4.428665 -1.000000
v -2.219296 3.837743 -1.000000
v 2.219296 3.837743 -1.180298
v 2.219296 4.428665 -1.180298
v -2.219296 4.428665 -1.180298
v -2.219296 3.837743 -1.180298
v 1.000000 1.000000 1.280703
v -1.000000 1.000000 1.280703
v 1.000000 3.038987 1.280703
v -1.000000 3.038987 1.280703
v 1.000000 4.995313 1.280703
v -1.000000 4.995313 1.280703
v 0.657419 4.652731 1.280703
v -0.657419 4.652731 1.280703
v 0.635702 2.674689 1.280703
v -0.635702 2.674689 1.280703
v 0.609210 0.609210 1.280703
v -0.609210 0.609210 1.280703
vt 0.375000 0.000000
vt 0.625000 0.000000
vt 0.625000 0.250000
vt 0.375000 0.250000
vt 0.420112 0.295112
vt 0.579888 0.295112
vt 0.579888 0.454888
vt 0.420112 0.454888
vt 0.375000 0.500000
vt 0.625000 0.500000
vt 0.625000 0.750000
vt 0.375000 0.750000
vt 0.625000 0.792823
vt 0.625000 0.957177
vt 0.625000 0.957177
vt 0.625000 0.792823
vt 0.125000 0.500000
vt 0.125000 0.750000
vt 0.625000 0.500000
vt 0.625000 0.750000
vt 0.625000 0.500000
vt 0.625000 0.750000
vt 0.625000 0.000000
vt 0.625000 0.250000
vt 0.423849 0.951151
vt 0.423849 0.798849
vt 0.423849 0.798849
vt 0.423849 0.951151
vt 0.875000 0.500000
vt 0.875000 0.750000
vt 0.625000 0.000000
vt 0.625000 0.250000
vt 0.625000 0.954463
vt 0.625000 0.954463
vt 0.625000 0.954463
vt 0.625000 0.954463
vt 0.625000 0.313404
vt 0.625000 0.313404
vt 0.625000 0.313404
vt 0.625000 0.313404
vt 0.625000 0.792823
vt 0.625000 0.957177
vt 0.625000 1.000000
vt 0.625000 0.954463
vt 0.625000 1.000000
vt 0.625000 1.000000
vt 0.625000 0.795537
vt 0.625000 1.000000
vt 0.625000 0.750000
vt 0.625000 0.792823
vt 0.625000 0.795537
vt 0.576151 0.951151
vt 0.375000 1.000000
vt 0.576151 0.798849
vt 0.625000 1.000000
vt 0.625000 0.750000
vt 0.625000 0.795537
vt 0.576151 0.951151
vt 0.576151 0.798849
vt 0.625000 0.792823
vt 0.625000 0.795537
vt 0.625000 0.957177
vt 0.625000 0.295112
vt 0.625000 0.454888
vt 0.625000 0.454888
vt 0.625000 0.295112
vt 0.625000 0.313404
vt 0.625000 0.436596
vt 0.625000 0.436596
vt 0.625000 0.436596
vt 0.625000 0.313404
vt 0.625000 0.436596
vt 0.625000 0.436596
vt 0.625000 0.436596
vt 0.625000 0.436596
vt 0.625000 0.436596
vt 0.625000 0.313404
vt 0.625000 0.313404
vt 0.625000 0.957177
vt 0.625000 1.000000
vt 0.625000 0.795537
vt 0.625000 0.750000
vt 0.576151 0.951151
vt 0.576151 0.798849
vt 0.875000 0.750000
vn -1.0000 0.0000 0.0000
vn 0.0000 0.0000 -1.0000
vn 1.0000 0.0000 0.0000
vn 0.0000 -1.0000 0.0000
vn 0.0000 1.0000 0.0000
vn 0.0000 0.0000 1.0000
vn -0.7071 -0.7071 0.0000
vn 0.7071 -0.7071 0.0000
usemtl Gray
s off
f 25/1/1 26/2/1 41/3/1 42/4/1
f 3/5/2 4/6/2 8/7/2 7/8/2
f 43/9/3 44/10/3 27/11/3 28/12/3
f 16/13/4 13/14/4 32/15/4 31/16/4
f 42/17/4 43/9/4 28/12/4 25/18/4
f 27/11/3 44/10/3 46/19/3 23/20/3
f 23/20/3 46/19/3 48/21/3 19/22/3
f 41/3/1 26/2/1 24/23/1 45/24/1
f 1/25/5 5/26/5 40/27/5 37/28/5
f 44/10/2 41/3/2 45/24/2 46/19/2
f 48/21/5 47/29/5 20/30/5 19/22/5
f 45/24/1 24/23/1 20/31/1 47/32/1
f 18/33/3 2/34/3 34/35/3 36/36/3
f 14/37/5 55/38/5 63/39/5 59/40/5
f 12/41/6 9/42/6 24/43/6 23/20/6
f 24/43/7 18/33/7 74/44/7 68/45/7
f 16/13/6 12/41/6 23/20/6 19/22/6
f 9/42/6 13/14/6 20/46/6 24/43/6
f 6/47/6 2/34/6 26/48/6 27/11/6
f 16/13/8 19/22/8 69/49/8 71/50/8
f 17/51/6 6/47/6 27/11/6 23/20/6
f 2/34/6 18/33/6 24/43/6 26/48/6
f 1/25/6 22/52/6 26/48/6 25/53/6
f 21/54/6 5/26/6 28/12/6 27/11/6
f 5/26/6 1/25/6 25/53/6 28/12/6
f 27/11/5 26/48/5 66/55/5 65/56/5
f 2/34/5 6/47/5 33/57/5 34/35/5
f 21/54/4 22/52/4 38/58/4 39/59/4
f 12/41/1 16/13/1 31/16/1 29/60/1
f 17/51/4 18/33/4 36/36/4 35/61/4
f 22/52/3 1/25/3 37/28/3 38/58/3
f 13/14/3 9/42/3 30/62/3 32/15/3
f 6/47/1 17/51/1 35/61/1 33/57/1
f 5/26/1 21/54/1 39/59/1 40/27/1
f 9/42/5 12/41/5 29/60/5 30/62/5
f 4/6/2 3/5/2 42/4/2 41/3/2
f 3/5/2 7/8/2 43/9/2 42/4/2
f 8/7/2 4/6/2 41/3/2 44/10/2
f 7/8/2 8/7/2 44/10/2 43/9/2
f 49/63/2 50/64/2 46/19/2 45/24/2
f 52/65/2 51/66/2 47/32/2 48/21/2
f 50/64/2 52/65/2 48/21/2 46/19/2
f 51/66/2 49/63/2 45/24/2 47/32/2
f 10/67/2 11/68/2 50/64/2 49/63/2
f 15/69/2 14/37/2 51/66/2 52/65/2
f 11/68/2 15/69/2 52/65/2 50/64/2
f 14/37/2 10/67/2 49/63/2 51/66/2
f 54/70/2 53/71/2 55/38/2 56/72/2
f 11/68/4 10/67/4 53/71/4 54/70/4
f 54/70/2 56/72/2 62/73/2 61/74/2
f 14/37/5 15/69/5 56/72/5 55/38/5
f 58/75/3 57/76/3 61/74/3 62/73/3
f 60/77/1 59/40/1 63/39/1 64/78/1
f 56/72/5 15/69/5 58/75/5 62/73/5
f 15/69/6 11/68/6 57/76/6 58/75/6
f 55/38/2 53/71/2 64/78/2 63/39/2
f 53/71/4 10/67/4 60/77/4 64/78/4
f 10/67/6 14/37/6 59/40/6 60/77/6
f 11/68/4 54/70/4 61/74/4 57/76/4
f 72/79/6 71/50/6 69/49/6 70/80/6
f 74/44/6 73/81/6 67/82/6 68/45/6
f 76/83/6 75/84/6 65/56/6 66/55/6
f 26/48/7 22/52/7 76/83/7 66/55/7
f 23/20/5 24/43/5 68/45/5 67/82/5
f 13/14/4 16/13/4 71/50/4 72/79/4
f 17/51/8 23/20/8 67/82/8 73/81/8
f 21/54/8 27/11/8 65/56/8 75/84/8
f 19/22/5 20/30/5 70/85/5 69/49/5
f 22/52/4 21/54/4 75/84/4 76/83/4
f 18/33/4 17/51/4 73/81/4 74/44/4
f 20/46/7 13/14/7 72/79/7 70/80/7
usemtl Red
f 30/62/6 29/60/6 31/16/6 32/15/6
usemtl Yellow
f 34/35/6 33/57/6 35/61/6 36/36/6
usemtl Green
f 40/27/6 39/59/6 38/58/6 37/28/6
